<svg width="495" height="195" viewBox="0 0 495 195" xmlns="http://www.w3.org/2000/svg">
  <defs>
    <linearGradient id="topbar3" x1="0%" y1="0%" x2="100%" y2="0%">
      <stop offset="0%" style="stop-color:#9ece6a"/>
      <stop offset="100%" style="stop-color:#7dcfff"/>
    </linearGradient>
  </defs>

  <!-- Background -->
  <rect width="495" height="195" rx="12" fill="#1a1b2e"/>
  <rect width="495" height="3" rx="2" fill="url(#topbar3)"/>
  <rect width="495" height="195" rx="12" fill="none" stroke="#0f3460" stroke-width="1"/>

  <!-- Code icon -->
  <text x="20" y="33" font-family="monospace" font-size="18" fill="#9ece6a">&lt;/&gt;</text>

  <!-- Title -->
  <text x="52" y="30" font-family="'Segoe UI', Ubuntu, sans-serif" font-size="15" font-weight="700" fill="#c0caf5">Top Languages</text>

  <!-- Divider -->
  <line x1="20" y1="44" x2="475" y2="44" stroke="#0f3460" stroke-width="1"/>

  <!-- Stacked full-width color bar -->
  <!-- Python: 72% -->
  <rect x="20" y="56" width="346" height="12" rx="0" fill="#3d79f0"/>
  <!-- C++: 15% -->
  <rect x="366" y="56" width="72" height="12" rx="0" fill="#ff9e64"/>
  <!-- MATLAB: 8% -->
  <rect x="438" y="56" width="38" height="12" rx="0" fill="#9ece6a"/>
  <!-- Shell: 5% (remaining) -->
  <!-- left cap -->
  <rect x="20" y="56" width="10" height="12" rx="6" fill="#3d79f0"/>
  <!-- right cap -->
  <rect x="466" y="56" width="10" height="12" rx="6" fill="#9ece6a"/>

  <!-- Legend dots + labels -->
  <!-- Python -->
  <circle cx="30" cy="92" r="6" fill="#3d79f0"/>
  <text x="42" y="97" font-family="'Segoe UI', Ubuntu, monospace" font-size="12" fill="#c0caf5">Python</text>
  <text x="42" y="112" font-family="'Segoe UI', Ubuntu, monospace" font-size="11" fill="#565f89">72.4%</text>

  <!-- C++ -->
  <circle cx="140" cy="92" r="6" fill="#ff9e64"/>
  <text x="152" y="97" font-family="'Segoe UI', Ubuntu, monospace" font-size="12" fill="#c0caf5">C++</text>
  <text x="152" y="112" font-family="'Segoe UI', Ubuntu, monospace" font-size="11" fill="#565f89">15.1%</text>

  <!-- MATLAB -->
  <circle cx="240" cy="92" r="6" fill="#9ece6a"/>
  <text x="252" y="97" font-family="'Segoe UI', Ubuntu, monospace" font-size="12" fill="#c0caf5">MATLAB</text>
  <text x="252" y="112" font-family="'Segoe UI', Ubuntu, monospace" font-size="11" fill="#565f89">8.3%</text>

  <!-- Shell -->
  <circle cx="350" cy="92" r="6" fill="#bb9af7"/>
  <text x="362" y="97" font-family="'Segoe UI', Ubuntu, monospace" font-size="12" fill="#c0caf5">Shell</text>
  <text x="362" y="112" font-family="'Segoe UI', Ubuntu, monospace" font-size="11" fill="#565f89">4.2%</text>

  <!-- Divider -->
  <line x1="20" y1="128" x2="475" y2="128" stroke="#0f3460" stroke-width="1"/>

  <!-- Compact language rows -->
  <!-- Python -->
  <circle cx="30" cy="148" r="4" fill="#3d79f0"/>
  <text x="42" y="152" font-family="'Segoe UI', Ubuntu, monospace" font-size="11" fill="#c0caf5">Python</text>
  <rect x="110" y="143" width="240" height="7" rx="3" fill="#16213e"/>
  <rect x="110" y="143" width="173" height="7" rx="3" fill="#3d79f0"/>
  <text x="362" y="152" font-family="'Segoe UI', Ubuntu, monospace" font-size="11" fill="#3d79f0">72.4%</text>

  <!-- C++ -->
  <circle cx="30" cy="167" r="4" fill="#ff9e64"/>
  <text x="42" y="171" font-family="'Segoe UI', Ubuntu, monospace" font-size="11" fill="#c0caf5">C++</text>
  <rect x="110" y="162" width="240" height="7" rx="3" fill="#16213e"/>
  <rect x="110" y="162" width="36" height="7" rx="3" fill="#ff9e64"/>
  <text x="362" y="171" font-family="'Segoe UI', Ubuntu, monospace" font-size="11" fill="#ff9e64">15.1%</text>

  <!-- MATLAB -->
  <circle cx="30" cy="186" r="4" fill="#9ece6a"/>
  <text x="42" y="190" font-family="'Segoe UI', Ubuntu, monospace" font-size="11" fill="#c0caf5">MATLAB</text>
  <rect x="110" y="181" width="240" height="7" rx="3" fill="#16213e"/>
  <rect x="110" y="181" width="20" height="7" rx="3" fill="#9ece6a"/>
  <text x="362" y="190" font-family="'Segoe UI', Ubuntu, monospace" font-size="11" fill="#9ece6a">8.3%</text>
</svg>
